<?xml version="1.0" ?><!-- Uploaded to: SVG Repo, www.svgrepo.com, Generator: SVG Repo Mixer Tools -->
<svg width="800px" height="800px" viewBox="0 0 512 512" id="icons" xmlns="http://www.w3.org/2000/svg"><defs><style>.cls-1{stroke-miterlimit:10;}.cls-1,.cls-2{fill:none;stroke:#808285;stroke-width:7px;}.cls-2{stroke-linecap:round;stroke-linejoin:round;}</style></defs><path class="cls-1" d="M440.46,195.72c-4.65,13.85-14.67,27.17-24.36,40.05-6.68,8.87-15.21,20.09-19.53,28.84v-41.73c.29-.38,.58-.77,.87-1.15,22.91-30.45,28.6-43.24,14.85-54.37-5.01-4.06-5.79-11.41-1.73-16.42,4.05-5.01,11.4-5.78,16.41-1.73,14.98,12.13,19.64,28.2,13.49,46.51Z"/><path class="cls-1" d="M309.72,391.32h17.03c38.2,0,69.17-30.97,69.17-69.17v-119.18c0-30.74-20.05-56.79-47.77-65.8-1.75-.57-3.11-1.94-3.7-3.68l-11.81-34.97c-1.32-3.92-6.37-4.98-9.16-1.92l-32.04,35.09-.02,.02c-1.16,1.28-2.75,2.09-4.48,2.09h-59.52c-1.73,0-3.32-.81-4.48-2.09l-.02-.02-32.04-35.09c-2.79-3.06-7.84-2-9.16,1.92l-11.88,35.16c-.58,1.72-1.93,3.08-3.65,3.66-27.46,9.17-47.25,35.08-47.25,65.63v119.18c0,38.2,30.97,69.17,69.17,69.17h79.69"/><path class="cls-2" d="M309.72,391.32v-87.37h20.75l7.56-35.1h-28.31v-17.41c0-3.57,.94-6.45,2.83-8.63s4.33-3.26,7.33-3.26h17.24v-41.63h-23.48c-14.41,0-25.65,3.55-33.73,10.66-8.07,7.1-12.11,16.9-12.11,29.37v30.9h-14.8v35.1h14.8v87.37"/></svg>